<?xml version="1.0" standalone="no"?>
<!DOCTYPE svg PUBLIC "-//W3C//DTD SVG 20010904//EN"
 "http://www.w3.org/TR/2001/REC-SVG-20010904/DTD/svg10.dtd">
<svg version="1.0" xmlns="http://www.w3.org/2000/svg"
 width="160px" height="160px" viewBox="0 0 565.000000 442.000000"
 preserveAspectRatio="xMidYMid meet">

<g transform="translate(0.000000,442.000000) scale(0.100000,-0.100000)"
fill="#00ffff" stroke="brown" stroke-width="8">
<path d="M4040 4030 l0 -120 -120 0 -120 0 0 -125 0 -125 -120 0 -120 0 0
-120 0 -120 -125 0 -125 0 0 -120 0 -120 -120 0 -120 0 0 -125 0 -125 -120 0
-120 0 0 -120 0 -120 -125 0 -125 0 0 -120 0 -120 -120 0 -119 0 -3 -122 -3
-123 -120 0 -120 0 -3 123 -3 122 -119 0 -120 0 0 120 0 120 -240 0 -240 0 0
-240 0 -240 120 0 120 0 0 -245 0 -245 120 0 120 0 0 -125 0 -125 -120 0 -120
0 0 -120 0 -120 -120 0 -120 0 0 -120 0 -120 -245 0 -245 0 2 -362 3 -363 360
0 360 0 3 243 2 242 120 0 120 0 0 120 0 120 120 0 119 0 3 123 3 122 123 3
122 3 0 -126 0 -125 245 0 245 0 0 -120 0 -120 240 0 240 0 0 240 0 240 -120
0 -119 0 -3 123 -3 122 -122 3 -123 3 0 119 0 119 123 3 122 3 3 123 3 122
119 0 120 0 0 120 0 120 120 0 120 0 0 120 0 119 123 3 122 3 3 117 3 117 117
3 117 3 3 123 3 122 119 0 120 0 0 120 0 120 120 0 119 0 3 118 3 117 123 3
122 3 0 364 0 365 -365 0 -365 0 0 -120z m248 -242 l3 -118 114 0 115 0 0
-125 0 -125 -120 0 -120 0 0 -120 0 -120 -120 0 -120 0 0 -120 0 -120 -120 0
-119 0 -3 -122 -3 -123 -122 -3 -123 -3 0 -119 0 -120 -120 0 -120 0 0 -120 0
-120 -120 0 -120 0 0 -120 0 -119 -122 -3 -123 -3 -3 -122 -3 -123 -119 0
-120 0 0 120 0 120 -120 0 -120 0 0 120 0 120 120 0 120 0 0 125 0 125 125 0
125 0 0 120 0 120 120 0 120 0 0 120 0 120 120 0 120 0 0 125 0 125 125 0 125
0 0 120 0 120 120 0 120 0 0 120 0 120 120 0 120 0 0 125 0 126 123 -3 122 -3
3 -117z m-2198 -1825 l0 -243 -120 0 -120 0 0 238 c0 131 2 241 4 243 2 2 56
4 120 4 l116 0 0 -242z m250 -363 l0 -120 240 0 240 0 0 -120 0 -120 -240 0
-240 0 0 120 0 120 -120 0 -120 0 0 120 0 120 120 0 120 0 0 -120z"/>
<path d="M4040 3545 l0 -115 120 0 120 0 0 115 0 115 -120 0 -120 0 0 -115z"/>
<path d="M3800 3300 l0 -120 120 0 120 0 0 120 0 120 -120 0 -120 0 0 -120z"/>
<path d="M3560 3060 l0 -120 115 0 115 0 0 120 0 120 -115 0 -115 0 0 -120z"/>
<path d="M3310 2815 l0 -115 120 0 120 0 0 115 0 115 -120 0 -120 0 0 -115z"/>
<path d="M3070 2570 l0 -120 120 0 120 0 0 120 0 120 -120 0 -120 0 0 -120z"/>
<path d="M2830 2330 l0 -120 115 0 115 0 0 120 0 120 -115 0 -115 0 0 -120z"/>
<path d="M2590 2085 l0 -115 115 0 115 0 0 115 0 115 -115 0 -115 0 0 -115z"/>
</g>
</svg>
